# xmcd
#
# Track frame offsets:
# 150
# 12372
# 26182
# 39122
# 53260
# 67266
# 80151
# 93228
# 106147
# 116910
# 127929
# 141736
# 154701
#
# Disc length: 2193 seconds
#
#
# Revision: 0
# Processed by: cddbd v1.5.1PL2 Copyright (c) Steve Scherf et al.
# Submitted via: FreeRIP 2.943 
#
DISCID=ac088f0d
DTITLE=Rita MacNeil - Songs My Mother Loved
DYEAR=2006
DGENRE=Easy Listening
TTITLE0=Dear Hearts and Gentle People
TTITLE1=Smilin' Through
TTITLE2=You Don't Know Me
TTITLE3=North to Alaska
TTITLE4=Green Green Grass of Home
TTITLE5=It's Almost Tomorrow
TTITLE6=You'll Never Walk Alone
TTITLE7=I Don't Know Why (I Just Do)
TTITLE8=A Rusty Old Halo
TTITLE9=Eriskay Love Lilt
TTITLE10=The Wayward Wind
TTITLE11=Four Walls
TTITLE12=From A Jack to A King
EXTD=
EXTT0=
EXTT1=
EXTT2=
EXTT3=
EXTT4=
EXTT5=
EXTT6=
EXTT7=
EXTT8=
EXTT9=
EXTT10=
EXTT11=
EXTT12=
PLAYORDER=
